<svg width="479" height="114" viewBox="0 0 479 114" fill="none" xmlns="http://www.w3.org/2000/svg">
<path d="M25.26 52.08L55.2 19.44C57.72 16.88 59.34 14.36 60.06 11.88C60.78 9.4 60.68 7.24 59.76 5.4C58.84 3.51999 57.12 2.21999 54.6 1.49999L52.5 1.02C52.22 0.939995 52.02 0.859994 51.9 0.779995C51.82 0.699996 51.78 0.599996 51.78 0.479995C51.78 0.359994 51.84 0.259995 51.96 0.179996C52.08 0.0599947 52.22 -5.72205e-06 52.38 -5.72205e-06H79.74C79.94 -5.72205e-06 80.08 0.0399938 80.16 0.119993C80.28 0.199996 80.34 0.299999 80.34 0.42C80.34 0.579998 80.26 0.719997 80.1 0.839998C79.98 0.919997 79.84 0.999996 79.68 1.07999C78.52 1.47999 77.32 2.03999 76.08 2.75999C74.84 3.47999 73.36 4.49999 71.64 5.81999C69.96 7.13999 67.92 8.9 65.52 11.1C63.16 13.3 60.28 16.14 56.88 19.62L25.8 53.4L25.26 52.08ZM36 40.74L51.3 25.68L77.64 77.64C78.6 79.52 79.44 80.86 80.16 81.66C80.88 82.46 81.94 82.9 83.34 82.98C83.54 83.02 83.68 83.1 83.76 83.22C83.88 83.3 83.94 83.4 83.94 83.52C83.94 83.68 83.88 83.8 83.76 83.88C83.64 83.96 83.48 84 83.28 84H50.4C50.2 84 50.04 83.96 49.92 83.88C49.8 83.76 49.74 83.62 49.74 83.46C49.74 83.3 49.8 83.18 49.92 83.1C50.08 83.02 50.24 82.96 50.4 82.92L54.18 82.38C54.7 82.3 55.06 82 55.26 81.48C55.46 80.96 55.22 80 54.54 78.6L36 40.74ZM28.74 80.52C28.74 81 28.96 81.38 29.4 81.66C29.84 81.94 30.46 82.14 31.26 82.26L35.4 82.98C35.72 83.02 35.94 83.08 36.06 83.16C36.18 83.24 36.24 83.36 36.24 83.52C36.24 83.64 36.18 83.76 36.06 83.88C35.94 83.96 35.76 84 35.52 84H0.659978C0.419978 84 0.239978 83.96 0.119978 83.88C0.0399781 83.76 -2.19941e-05 83.64 -2.19941e-05 83.52C-2.19941e-05 83.24 0.279978 83.06 0.839978 82.98L4.91998 82.26C5.79998 82.14 6.43998 81.94 6.83998 81.66C7.27998 81.38 7.49998 81 7.49998 80.52V3.48C7.49998 3 7.27998 2.62 6.83998 2.34C6.43998 2.06 5.79998 1.86 4.91998 1.74L0.839978 1.02C0.279978 0.939995 -2.19941e-05 0.759994 -2.19941e-05 0.479995C-2.19941e-05 0.359994 0.0399781 0.259995 0.119978 0.179996C0.239978 0.0599947 0.419978 -5.72205e-06 0.659978 -5.72205e-06H35.58C35.78 -5.72205e-06 35.94 0.0599947 36.06 0.179996C36.18 0.259995 36.24 0.359994 36.24 0.479995C36.24 0.759994 35.96 0.939995 35.4 1.02L31.32 1.74C30.48 1.86 29.84 2.06 29.4 2.34C28.96 2.62 28.74 3 28.74 3.48V80.52ZM114.307 29.52C119.827 29.52 124.707 30.72 128.947 33.12C133.187 35.48 136.507 38.78 138.907 43.02C141.307 47.22 142.507 52.08 142.507 57.6C142.507 63 141.267 67.78 138.787 71.94C136.307 76.06 132.887 79.3 128.527 81.66C124.167 84.02 119.147 85.2 113.467 85.2C107.987 85.2 103.127 84.04 98.8875 81.72C94.6475 79.36 91.3275 76.12 88.9275 72C86.5275 67.84 85.3275 63.04 85.3275 57.6C85.3275 52.16 86.5675 47.34 89.0475 43.14C91.5675 38.94 95.0075 35.62 99.3675 33.18C103.727 30.74 108.707 29.52 114.307 29.52ZM117.547 84C119.507 83.8 121.047 82.66 122.167 80.58C123.327 78.46 124.027 75.38 124.267 71.34C124.507 67.3 124.227 62.3 123.427 56.34C122.667 50.34 121.647 45.42 120.367 41.58C119.127 37.7 117.667 34.88 115.987 33.12C114.347 31.36 112.507 30.6 110.467 30.84C108.507 31.08 106.947 32.26 105.787 34.38C104.667 36.5 104.007 39.56 103.807 43.56C103.607 47.56 103.887 52.54 104.647 58.5C105.407 64.42 106.407 69.32 107.647 73.2C108.927 77.04 110.387 79.86 112.027 81.66C113.707 83.46 115.547 84.24 117.547 84ZM169.954 83.7C172.434 83.7 174.374 83.08 175.774 81.84C177.174 80.56 177.874 78.92 177.874 76.92C177.874 75.44 177.534 74.1 176.854 72.9C176.174 71.66 174.994 70.52 173.314 69.48C171.634 68.44 169.314 67.44 166.354 66.48C161.314 64.8 157.374 62.98 154.534 61.02C151.694 59.02 149.694 56.8 148.534 54.36C147.374 51.88 146.794 49.1 146.794 46.02C146.794 40.7 148.594 36.62 152.194 33.78C155.794 30.9 160.634 29.46 166.714 29.46C169.194 29.46 171.234 29.7 172.834 30.18C174.434 30.62 175.654 31.08 176.494 31.56C177.334 32 177.894 32.22 178.174 32.22C178.614 32.22 179.414 32 180.574 31.56C181.774 31.08 182.954 30.62 184.114 30.18C185.274 29.7 186.034 29.46 186.394 29.46C186.594 29.46 186.774 29.52 186.934 29.64C187.094 29.72 187.194 29.92 187.234 30.24L190.114 48.36C190.194 48.72 190.214 49.02 190.174 49.26C190.134 49.46 190.034 49.6 189.874 49.68C189.754 49.76 189.634 49.78 189.514 49.74C189.394 49.66 189.274 49.52 189.154 49.32C186.474 44.6 183.974 40.9 181.654 38.22C179.374 35.5 177.094 33.58 174.814 32.46C172.534 31.34 170.094 30.78 167.494 30.78C164.854 30.78 162.834 31.46 161.434 32.82C160.034 34.14 159.334 35.9 159.334 38.1C159.334 39.7 159.694 41.14 160.414 42.42C161.174 43.7 162.514 44.88 164.434 45.96C166.354 47.04 169.114 48.08 172.714 49.08C177.114 50.36 180.634 51.94 183.274 53.82C185.914 55.7 187.794 57.84 188.914 60.24C190.074 62.64 190.654 65.26 190.654 68.1C190.654 71.62 189.794 74.66 188.074 77.22C186.354 79.74 184.034 81.7 181.114 83.1C178.234 84.5 175.014 85.2 171.454 85.2C169.254 85.2 167.334 84.9 165.694 84.3C164.094 83.7 162.794 83.12 161.794 82.56C160.834 81.96 160.234 81.66 159.994 81.66C159.714 81.66 159.034 81.92 157.954 82.44C156.914 82.96 155.834 83.48 154.714 84C153.634 84.56 152.894 84.84 152.494 84.84C152.254 84.84 152.014 84.72 151.774 84.48C151.574 84.28 151.434 83.92 151.354 83.4L149.014 68.22C148.974 67.7 148.974 67.34 149.014 67.14C149.094 66.9 149.214 66.72 149.374 66.6C149.454 66.52 149.554 66.54 149.674 66.66C149.794 66.74 149.914 66.88 150.034 67.08C153.594 73.04 156.994 77.3 160.234 79.86C163.474 82.42 166.714 83.7 169.954 83.7ZM224.581 29.52C230.101 29.52 234.981 30.72 239.221 33.12C243.461 35.48 246.781 38.78 249.181 43.02C251.581 47.22 252.781 52.08 252.781 57.6C252.781 63 251.541 67.78 249.061 71.94C246.581 76.06 243.161 79.3 238.801 81.66C234.441 84.02 229.421 85.2 223.741 85.2C218.261 85.2 213.401 84.04 209.161 81.72C204.921 79.36 201.601 76.12 199.201 72C196.801 67.84 195.601 63.04 195.601 57.6C195.601 52.16 196.841 47.34 199.321 43.14C201.841 38.94 205.281 35.62 209.641 33.18C214.001 30.74 218.981 29.52 224.581 29.52ZM227.821 84C229.781 83.8 231.321 82.66 232.441 80.58C233.601 78.46 234.301 75.38 234.541 71.34C234.781 67.3 234.501 62.3 233.701 56.34C232.941 50.34 231.921 45.42 230.641 41.58C229.401 37.7 227.941 34.88 226.261 33.12C224.621 31.36 222.781 30.6 220.741 30.84C218.781 31.08 217.221 32.26 216.061 34.38C214.941 36.5 214.281 39.56 214.081 43.56C213.881 47.56 214.161 52.54 214.921 58.5C215.681 64.42 216.681 69.32 217.921 73.2C219.201 77.04 220.661 79.86 222.301 81.66C223.981 83.46 225.821 84.24 227.821 84ZM279.747 30.3V80.34C279.747 80.94 279.847 81.42 280.047 81.78C280.287 82.1 280.667 82.32 281.187 82.44L283.947 82.98C284.427 83.1 284.667 83.28 284.667 83.52C284.667 83.84 284.467 84 284.067 84H257.307C257.147 84 257.007 83.96 256.887 83.88C256.767 83.8 256.707 83.68 256.707 83.52C256.707 83.4 256.747 83.3 256.827 83.22C256.947 83.14 257.127 83.08 257.367 83.04L260.247 82.44C260.767 82.32 261.127 82.1 261.327 81.78C261.567 81.42 261.687 80.94 261.687 80.34V37.26C261.687 36.94 261.607 36.72 261.447 36.6C261.327 36.44 261.087 36.36 260.727 36.36H257.607C257.407 36.32 257.247 36.26 257.127 36.18C257.047 36.1 257.007 35.98 257.007 35.82C257.007 35.66 257.047 35.54 257.127 35.46C257.247 35.38 257.407 35.32 257.607 35.28L277.467 29.76C277.907 29.64 278.207 29.56 278.367 29.52C278.527 29.48 278.727 29.46 278.967 29.46C279.207 29.46 279.387 29.54 279.507 29.7C279.667 29.86 279.747 30.06 279.747 30.3ZM278.247 43.02L277.467 42.24L279.747 40.2C283.867 36.6 287.487 33.92 290.607 32.16C293.727 30.4 296.567 29.52 299.127 29.52C302.767 29.52 305.587 30.62 307.587 32.82C309.627 34.98 310.907 38.42 311.427 43.14L315.747 80.16C315.827 80.8 315.967 81.32 316.167 81.72C316.407 82.12 316.807 82.38 317.367 82.5L319.947 83.04C320.187 83.08 320.347 83.14 320.427 83.22C320.547 83.3 320.607 83.4 320.607 83.52C320.607 83.68 320.547 83.8 320.427 83.88C320.347 83.96 320.207 84 320.007 84H292.767C292.367 84 292.167 83.84 292.167 83.52C292.167 83.28 292.407 83.1 292.887 82.98L295.707 82.44C296.307 82.32 296.727 82.06 296.967 81.66C297.207 81.26 297.287 80.76 297.207 80.16L293.667 45C293.387 42.4 292.807 40.5 291.927 39.3C291.047 38.1 289.687 37.5 287.847 37.5C286.607 37.5 285.387 37.82 284.187 38.46C282.987 39.06 281.727 39.94 280.407 41.1L278.247 43.02ZM357.686 79.86C363.486 80.74 367.986 81.82 371.186 83.1C374.426 84.34 376.686 85.94 377.966 87.9C379.246 89.86 379.886 92.28 379.886 95.16C379.886 100.56 377.346 104.96 372.266 108.36C367.226 111.76 360.046 113.46 350.726 113.46C343.686 113.46 337.986 112.92 333.626 111.84C329.266 110.76 326.086 109.26 324.086 107.34C322.126 105.46 321.146 103.28 321.146 100.8C321.146 97.44 322.446 94.84 325.046 93C327.646 91.2 331.986 89.96 338.066 89.28L338.126 89.88C336.646 90.28 335.506 90.98 334.706 91.98C333.946 93.02 333.566 94.22 333.566 95.58C333.566 100.54 335.066 104.52 338.066 107.52C341.066 110.52 345.506 112.02 351.386 112.02C354.546 112.02 357.166 111.7 359.246 111.06C361.366 110.42 362.946 109.44 363.986 108.12C365.026 106.8 365.546 105.12 365.546 103.08C365.546 101.44 365.066 100 364.106 98.76C363.146 97.52 361.426 96.42 358.946 95.46C356.506 94.54 353.046 93.7 348.566 92.94C343.686 92.06 339.806 91.14 336.926 90.18C334.046 89.26 331.966 88.1 330.686 86.7C329.446 85.34 328.826 83.58 328.826 81.42C328.826 79.46 329.346 77.7 330.386 76.14C331.466 74.58 333.206 73.28 335.606 72.24C338.046 71.2 341.306 70.46 345.386 70.02L345.446 70.44C344.806 70.56 344.206 70.92 343.646 71.52C343.126 72.08 342.866 72.78 342.866 73.62C342.866 74.46 343.226 75.2 343.946 75.84C344.706 76.48 346.146 77.12 348.266 77.76C350.386 78.4 353.526 79.1 357.686 79.86ZM358.706 32.46L359.246 31.2C360.766 27.32 362.646 24.2 364.886 21.84C367.166 19.44 370.026 18.24 373.466 18.24C376.426 18.24 378.666 19.08 380.186 20.76C381.746 22.4 382.526 24.52 382.526 27.12C382.526 29.36 381.946 31.12 380.786 32.4C379.666 33.68 378.026 34.32 375.866 34.32C374.546 34.32 373.426 33.94 372.506 33.18C371.586 32.42 370.766 31.54 370.046 30.54C369.326 29.54 368.586 28.66 367.826 27.9C367.066 27.1 366.186 26.7 365.186 26.7C363.986 26.7 362.966 27.18 362.126 28.14C361.286 29.06 360.526 30.4 359.846 32.16L358.706 32.46ZM376.286 49.8C376.286 53.8 375.146 57.42 372.866 60.66C370.586 63.86 367.466 66.4 363.506 68.28C359.546 70.12 355.086 71.04 350.126 71.04C344.606 71.04 339.826 70.14 335.786 68.34C331.746 66.54 328.626 64.14 326.426 61.14C324.226 58.14 323.126 54.86 323.126 51.3C323.126 47.18 324.226 43.48 326.426 40.2C328.666 36.92 331.846 34.32 335.966 32.4C340.086 30.48 344.966 29.52 350.606 29.52C356.006 29.52 360.626 30.48 364.466 32.4C368.306 34.28 371.226 36.76 373.226 39.84C375.266 42.92 376.286 46.24 376.286 49.8ZM347.006 30.96C345.486 31.12 344.206 32 343.166 33.6C342.166 35.16 341.466 37.38 341.066 40.26C340.706 43.1 340.766 46.48 341.246 50.4C341.726 54.48 342.486 57.96 343.526 60.84C344.566 63.72 345.806 65.9 347.246 67.38C348.726 68.82 350.266 69.48 351.866 69.36C354.106 69.16 355.786 67.36 356.906 63.96C358.066 60.52 358.306 55.82 357.626 49.86C356.906 43.74 355.546 39.02 353.546 35.7C351.586 32.38 349.406 30.8 347.006 30.96ZM406.664 30.3V80.34C406.664 80.94 406.764 81.42 406.964 81.78C407.204 82.1 407.584 82.32 408.104 82.44L410.864 82.98C411.144 83.02 411.324 83.1 411.404 83.22C411.524 83.3 411.584 83.4 411.584 83.52C411.584 83.68 411.524 83.8 411.404 83.88C411.324 83.96 411.184 84 410.984 84H384.224C384.064 84 383.924 83.96 383.804 83.88C383.684 83.8 383.624 83.68 383.624 83.52C383.624 83.4 383.664 83.3 383.744 83.22C383.864 83.14 384.044 83.08 384.284 83.04L387.164 82.44C387.684 82.32 388.044 82.1 388.244 81.78C388.484 81.42 388.604 80.94 388.604 80.34V37.26C388.604 36.94 388.524 36.72 388.364 36.6C388.244 36.44 388.004 36.36 387.644 36.36H384.524C384.284 36.32 384.124 36.26 384.044 36.18C383.964 36.1 383.924 35.98 383.924 35.82C383.924 35.66 383.964 35.54 384.044 35.46C384.164 35.38 384.304 35.32 384.464 35.28L404.384 29.76C404.824 29.64 405.124 29.56 405.284 29.52C405.444 29.48 405.644 29.46 405.884 29.46C406.124 29.46 406.304 29.54 406.424 29.7C406.584 29.86 406.664 30.06 406.664 30.3ZM397.364 23.94C394.244 23.94 391.724 22.94 389.804 20.94C387.884 18.94 386.924 16.5 386.924 13.62C386.924 10.74 387.884 8.3 389.804 6.3C391.764 4.3 394.284 3.3 397.364 3.3C400.484 3.3 403.024 4.3 404.984 6.3C406.984 8.3 407.984 10.74 407.984 13.62C407.984 16.5 406.984 18.94 404.984 20.94C402.984 22.94 400.444 23.94 397.364 23.94ZM437.599 30.3V80.34C437.599 80.94 437.699 81.42 437.899 81.78C438.139 82.1 438.519 82.32 439.039 82.44L441.799 82.98C442.279 83.1 442.519 83.28 442.519 83.52C442.519 83.84 442.319 84 441.919 84H415.159C414.999 84 414.859 83.96 414.739 83.88C414.619 83.8 414.559 83.68 414.559 83.52C414.559 83.4 414.599 83.3 414.679 83.22C414.799 83.14 414.979 83.08 415.219 83.04L418.099 82.44C418.619 82.32 418.979 82.1 419.179 81.78C419.419 81.42 419.539 80.94 419.539 80.34V37.26C419.539 36.94 419.459 36.72 419.299 36.6C419.179 36.44 418.939 36.36 418.579 36.36H415.459C415.259 36.32 415.099 36.26 414.979 36.18C414.899 36.1 414.859 35.98 414.859 35.82C414.859 35.66 414.899 35.54 414.979 35.46C415.099 35.38 415.259 35.32 415.459 35.28L435.319 29.76C435.759 29.64 436.059 29.56 436.219 29.52C436.379 29.48 436.579 29.46 436.819 29.46C437.059 29.46 437.239 29.54 437.359 29.7C437.519 29.86 437.599 30.06 437.599 30.3ZM436.099 43.02L435.319 42.24L437.599 40.2C441.719 36.6 445.339 33.92 448.459 32.16C451.579 30.4 454.419 29.52 456.979 29.52C460.619 29.52 463.439 30.62 465.439 32.82C467.479 34.98 468.759 38.42 469.279 43.14L473.599 80.16C473.679 80.8 473.819 81.32 474.019 81.72C474.259 82.12 474.659 82.38 475.219 82.5L477.799 83.04C478.039 83.08 478.199 83.14 478.279 83.22C478.399 83.3 478.459 83.4 478.459 83.52C478.459 83.68 478.399 83.8 478.279 83.88C478.199 83.96 478.059 84 477.859 84H450.619C450.219 84 450.019 83.84 450.019 83.52C450.019 83.28 450.259 83.1 450.739 82.98L453.559 82.44C454.159 82.32 454.579 82.06 454.819 81.66C455.059 81.26 455.139 80.76 455.059 80.16L451.519 45C451.239 42.4 450.659 40.5 449.779 39.3C448.899 38.1 447.539 37.5 445.699 37.5C444.459 37.5 443.239 37.82 442.039 38.46C440.839 39.06 439.579 39.94 438.259 41.1L436.099 43.02Z" fill="#032119"/>
</svg>
