<svg width="73" height="73" viewBox="0 0 73 73" fill="none" xmlns="http://www.w3.org/2000/svg">
<g clip-path="url(#clip0_143_571)">
<rect width="73" height="73" rx="36.5" fill="url(#paint0_linear_143_571)"/>
<path d="M36.5286 37.9901C37.3104 37.9901 38.1488 38.0086 38.8685 38.12C39.2292 38.1759 39.5787 38.2576 39.8841 38.3807C40.187 38.5029 40.4788 38.6785 40.6888 38.9403C40.9579 39.2757 43.5076 42.2471 46.0042 45.1503C46.8178 46.0963 47.6242 47.0333 48.3411 47.8661C48.722 47.5247 49.2251 47.3154 49.7767 47.3153C50.9591 47.3155 51.9241 48.2693 51.9241 49.452C51.9241 49.912 51.7765 50.3365 51.5286 50.6844H58.1859C59.3312 50.6845 60.408 50.8101 61.1946 51.1552C61.5928 51.3299 61.9499 51.575 62.1917 51.9198C62.4409 52.2753 62.5411 52.6987 62.4857 53.1649C62.4014 53.874 62.3419 54.3619 62.304 54.6727C62.2851 54.8279 62.272 54.9392 62.263 55.0116C62.2586 55.0475 62.2544 55.0742 62.2523 55.0917C62.2512 55.1001 62.2508 55.1069 62.2503 55.1112C62.2501 55.1131 62.2495 55.115 62.2493 55.1161V55.118L62.2484 55.1229L61.9925 57.0048L61.9915 57.0106L61.7816 58.4227L61.7806 58.4286L61.5374 59.9423L61.5364 59.9481L61.2591 61.5399L61.2571 61.5477L60.9446 63.1962L60.9427 63.204L60.5941 64.8876L60.5931 64.8915C60.4084 65.7424 60.21 66.5991 59.9964 67.4481C59.3781 69.9043 58.6065 72.1555 57.8421 74.0848L57.8401 74.0917L57.2747 75.4647L57.2708 75.4764L56.8128 75.2743L57.2698 75.4764L56.722 76.7196L56.7181 76.7303L56.265 76.5184L56.7171 76.7303L56.2005 77.8339L56.1985 77.8387C56.1152 78.0118 56.0336 78.1786 55.9544 78.3387L55.9515 78.3456L55.3138 79.5917L55.3099 79.5985C54.4016 81.3104 52.6984 82.3171 50.9036 82.4618C50.8972 82.4623 50.8905 82.4625 50.8841 82.4628L50.473 82.4794C50.4666 82.4796 50.4598 82.4794 50.4534 82.4794L22.5179 82.4999C20.5963 82.4999 18.6941 81.5085 17.7015 79.6727L17.6976 79.6659L17.1009 78.5194L17.095 78.5087L16.6341 77.5663L16.6321 77.5624C16.5512 77.3924 16.4688 77.2162 16.3851 77.035L16.3821 77.0292L15.8714 75.8885L15.8694 75.8827C14.9029 73.6537 13.8389 70.789 13.0032 67.4686C12.8622 66.9084 12.7276 66.3483 12.5999 65.7919L12.5989 65.788L12.2376 64.1395L12.2357 64.1317L11.9105 62.5184L11.9085 62.5106V62.5096L11.6194 60.9491L11.6185 60.9423L11.3636 59.4481L11.3626 59.4423L11.1409 58.0331L11.14 58.0272L10.9485 56.7196L10.9476 56.7137L10.7171 54.9774L10.7161 54.9706L10.5472 53.5555V53.5526C10.5393 53.4828 10.5051 53.2951 10.5013 53.1161C10.4912 52.6461 10.5951 52.2341 10.8343 51.8925C11.0708 51.5548 11.4069 51.3319 11.7757 51.1786C12.485 50.8839 13.4591 50.7928 14.4681 50.702L14.4905 50.7001L14.8392 50.6844H22.2816C22.3461 50.6058 22.4299 50.5026 22.5316 50.3788C22.7871 50.0677 23.1536 49.6229 23.595 49.0868C24.4781 48.0144 25.6639 46.5767 26.8743 45.118C28.0845 43.6596 29.321 42.1783 30.304 41.0184C30.7952 40.4389 31.2248 39.9378 31.5569 39.5594C31.8766 39.1952 32.1339 38.9119 32.264 38.7987C32.7745 38.3547 33.4938 38.1679 34.2093 38.079C34.9363 37.9887 35.7564 37.9901 36.5286 37.9901ZM32.4759 58.4227C31.3726 58.3631 30.0544 58.2598 29.012 58.3583C28.4873 58.4079 28.0977 58.5044 27.8577 58.6405C27.7444 58.7049 27.6832 58.7676 27.6507 58.8202C27.6225 58.8658 27.6021 58.9271 27.6048 59.0223L27.6439 59.371C27.646 59.3896 27.6468 59.4089 27.6468 59.4276L27.6556 74.0204L27.6732 74.0936C27.7103 74.1109 27.7519 74.1316 27.7982 74.1522C28.0087 74.2459 28.3065 74.368 28.6526 74.4823C29.3607 74.716 30.209 74.8945 30.9251 74.7811C31.3608 74.7121 31.721 74.6637 32.0511 74.6014C32.3777 74.5398 32.6201 74.473 32.7982 74.3856C32.9652 74.3035 33.0604 74.2111 33.1204 74.0975C33.1838 73.9772 33.2338 73.783 33.2181 73.454L33.179 73.1073C33.1769 73.0887 33.1761 73.0694 33.1761 73.0507L33.1653 58.6903C33.122 58.6677 33.0753 58.642 33.0257 58.618C32.7841 58.5013 32.5756 58.4282 32.4759 58.4227ZM44.1126 58.455C43.0216 58.2789 41.5973 58.3262 40.4759 58.4218C40.4759 58.4218 40.4372 58.4285 40.3538 58.4657C40.2773 58.4998 40.1914 58.5475 40.1068 58.5985C40.0731 58.6188 40.0413 58.6406 40.011 58.66L40.0208 73.0507C40.0208 73.0796 40.018 73.1091 40.013 73.1376C39.9477 73.5105 39.9751 73.7484 40.0335 73.9042C40.0882 74.0501 40.1863 74.1676 40.3558 74.2733C40.5357 74.3854 40.7881 74.4784 41.1292 74.5614C41.4685 74.6439 41.8621 74.7094 42.3148 74.7811C43.0306 74.8944 43.8681 74.7164 44.5638 74.4833C44.904 74.3692 45.1956 74.2466 45.4017 74.1532C45.446 74.1331 45.486 74.1125 45.5218 74.0956L45.5384 74.0253L45.5296 59.4276C45.5296 59.3988 45.5325 59.3701 45.5374 59.3417C45.5592 59.2171 45.542 59.1341 45.514 59.0731C45.484 59.0079 45.4243 58.9318 45.3109 58.8514C45.071 58.6818 44.665 58.5441 44.1126 58.455ZM33.2415 47.1307C32.3087 48.2426 31.3755 49.3548 30.2601 50.6844H42.7972L36.5286 43.2118C35.2751 44.706 34.2584 45.9186 33.2415 47.1307ZM46.7142 32.4969C47.9923 31.7025 49.6221 31.3607 51.2005 31.5516C52.5494 31.715 53.6638 32.2137 54.5511 33.0048C55.4344 33.7924 56.0681 34.8481 56.4984 36.0897C57.2557 38.2755 56.8289 40.7096 55.3109 42.4803C54.5756 43.3378 53.4331 43.8562 52.5355 44.1581C52.0775 44.3121 51.6623 44.4162 51.3616 44.4823C51.3366 44.4878 51.3118 44.492 51.2884 44.4969V46.952H47.9818V42.3114L48.4417 42.2743H48.4427C48.4439 42.2741 48.4461 42.2735 48.4485 42.2733C48.4545 42.2728 48.4645 42.2725 48.4769 42.2714C48.5023 42.2689 48.5414 42.2642 48.5911 42.2587C48.691 42.2475 48.8368 42.2299 49.015 42.203C49.3728 42.149 49.8592 42.0602 50.3743 41.9198C50.8915 41.7788 51.4243 41.5891 51.8831 41.3407C52.3458 41.0901 52.6993 40.7976 52.9026 40.4667C53.6201 39.2983 53.9696 37.7924 53.2112 36.5077C52.501 35.305 51.5099 34.6977 50.1419 34.7469C48.7066 34.7988 48.0617 35.4034 47.7493 35.9335C47.5848 36.2129 47.5005 36.4932 47.4583 36.705C47.4374 36.8098 47.428 36.896 47.4232 36.953C47.4207 36.9812 47.4188 37.0021 47.4183 37.0145V37.5243H44.3724L44.347 37.0507V37.0438C44.3468 37.0399 44.3463 37.0342 44.346 37.0272C44.3453 37.0127 44.3441 36.9914 44.3431 36.9657C44.3411 36.9145 44.3388 36.843 44.3372 36.7616C44.3341 36.6033 44.3336 36.3893 44.348 36.2128C44.4822 34.5679 45.4294 33.2958 46.7142 32.4969Z" fill="white"/>
</g>
<defs>
<linearGradient id="paint0_linear_143_571" x1="36.5" y1="0" x2="36.5" y2="73" gradientUnits="userSpaceOnUse">
<stop stop-color="#74A9A5"/>
<stop offset="0.5" stop-color="#568F87"/>
<stop offset="1" stop-color="#064232"/>
</linearGradient>
<clipPath id="clip0_143_571">
<rect width="73" height="73" rx="36.5" fill="white"/>
</clipPath>
</defs>
</svg>
